# xmcd
#
# Track frame offsets: 
#        150
#        9072
#        28129
#        48028
#        66142
#        95674
#        120938
#        139729
#        156690
#        174590
#        193078
#        210158
#        233301
#        257522
#        286519
#        305920
#
# Disc length: 4300 seconds
#
# Revision: 0
# Processed by: cddbd v1.5.1PL0 Copyright (c) Steve Scherf et al.
# Submitted via: ExactAudioCopy v0.95a5
#
DISCID=cb10ca10
DTITLE=Erykah Badu - Greatest Hits
DYEAR=1900
DGENRE=Blues
TTITLE0=Bag Lady
TTITLE1=Didn´t Cha Know
TTITLE2=On and On
TTITLE3=Apple Tree
TTITLE4=Next Lifetime
TTITLE5=In Love With You
TTITLE6=No More Trouble
TTITLE7=Sometimes
TTITLE8=Certainly
TTITLE9=My Life
TTITLE10=No Love
TTITLE11=Ye Yo
TTITLE12=Tyrone
TTITLE13=Heartache
TTITLE14=Kiss Me On My Neck
TTITLE15=Penitentiary Philosophy
EXTD=
EXTT0=
EXTT1=
EXTT2=
EXTT3=
EXTT4=
EXTT5=
EXTT6=
EXTT7=
EXTT8=
EXTT9=
EXTT10=
EXTT11=
EXTT12=
EXTT13=
EXTT14=
EXTT15=
PLAYORDER=
